<svg width="23" height="24" viewBox="0 0 23 24" fill="none" xmlns="http://www.w3.org/2000/svg">
<path d="M14.0504 5.5C15.0272 5.69056 15.9248 6.16826 16.6285 6.87193C17.3322 7.57561 17.8099 8.47326 18.0004 9.45M14.0504 1.5C16.0797 1.72544 17.972 2.63417 19.4167 4.07701C20.8613 5.51984 21.7724 7.41101 22.0004 9.44M21.0004 17.42V20.42C21.0016 20.6985 20.9445 20.9742 20.8329 21.2293C20.7214 21.4845 20.5577 21.7136 20.3525 21.9019C20.1473 22.0901 19.905 22.2335 19.6412 22.3227C19.3773 22.4119 19.0978 22.4451 18.8204 22.42C15.7433 22.0856 12.7874 21.0341 10.1904 19.35C7.77425 17.8147 5.72576 15.7662 4.19042 13.35C2.5004 10.7412 1.44866 7.77099 1.12042 4.68C1.09543 4.40347 1.1283 4.12476 1.21692 3.86162C1.30555 3.59849 1.44799 3.35669 1.63519 3.15162C1.82238 2.94655 2.05023 2.78271 2.30421 2.67052C2.5582 2.55833 2.83276 2.50026 3.11042 2.5H6.11042C6.59573 2.49522 7.06621 2.66708 7.43418 2.98353C7.80215 3.29999 8.0425 3.73945 8.11042 4.22C8.23705 5.18007 8.47187 6.12273 8.81042 7.03C8.94497 7.38792 8.97408 7.77691 8.89433 8.15088C8.81457 8.52485 8.62929 8.86811 8.36042 9.14L7.09042 10.41C8.51398 12.9135 10.5869 14.9864 13.0904 16.41L14.3604 15.14C14.6323 14.8711 14.9756 14.6858 15.3495 14.6061C15.7235 14.5263 16.1125 14.5555 16.4704 14.69C17.3777 15.0285 18.3204 15.2634 19.2804 15.39C19.7662 15.4585 20.2098 15.7032 20.527 16.0775C20.8441 16.4518 21.0126 16.9296 21.0004 17.42Z" stroke="#141414" stroke-width="2" stroke-linecap="round" stroke-linejoin="round"/>
</svg>
