<svg width="65" height="66" viewBox="0 0 65 66" fill="none" xmlns="http://www.w3.org/2000/svg">
<rect x="1.00024" y="1.5" width="63" height="63" stroke="#7A9CA5" stroke-width="2"/>
<path d="M35.8125 25.25C37.0335 25.4882 38.1555 26.0853 39.0351 26.9649C39.9147 27.8445 40.5118 28.9666 40.75 30.1875L35.8125 25.25ZM35.8125 20.25C38.3491 20.5318 40.7145 21.6677 42.5203 23.4713C44.3262 25.2748 45.4651 27.6388 45.75 30.175L35.8125 20.25ZM44.5 40.15V43.9C44.5015 44.2481 44.4301 44.5927 44.2907 44.9117C44.1512 45.2307 43.9467 45.517 43.6901 45.7523C43.4336 45.9877 43.1308 46.1669 42.801 46.2784C42.4712 46.3899 42.1218 46.4313 41.775 46.4C37.9286 45.9821 34.2338 44.6677 30.9875 42.5625C27.9673 40.6433 25.4067 38.0827 23.4875 35.0625C21.375 31.8015 20.0603 28.0887 19.65 24.225C19.6188 23.8793 19.6599 23.531 19.7707 23.202C19.8814 22.8731 20.0595 22.5709 20.2935 22.3145C20.5275 22.0582 20.8123 21.8534 21.1298 21.7132C21.4473 21.5729 21.7905 21.5003 22.1375 21.5H25.8875C26.4942 21.494 27.0823 21.7088 27.5422 22.1044C28.0022 22.5 28.3026 23.0493 28.3875 23.65C28.5458 24.8501 28.8394 26.0284 29.2625 27.1625C29.4307 27.6099 29.4671 28.0961 29.3674 28.5636C29.2677 29.0311 29.0361 29.4601 28.7 29.8L27.1125 31.3875C28.892 34.5169 31.4831 37.1081 34.6125 38.8875L36.2 37.3C36.5399 36.9639 36.969 36.7323 37.4364 36.6326C37.9039 36.5329 38.3901 36.5693 38.8375 36.7375C39.9716 37.1607 41.15 37.4542 42.35 37.6125C42.9572 37.6982 43.5118 38.004 43.9082 38.4719C44.3046 38.9397 44.5152 39.537 44.5 40.15Z" stroke="#7A9CA5" stroke-width="2" stroke-linecap="round" stroke-linejoin="round"/>
</svg>
